# xmcd
# 
# Track frame offsets:
#     150
#     13241
#     31632
#     46999
#     65837
#     83203
#     99028
#     117080
#     135961
#     152763
#     168820
#     191232
# 
# Disc length: 2934
# 
# Revision: 0
# Processed by: cddbd v1.5.2PL0 Copyright (c) Steve Scherf et al.
# Submitted via: fre:ac v1.0.31
# 
DISCID=8d0b740c
DTITLE=Southern Raised - Another World
DYEAR=0
DGENRE=Country
TTITLE0=Up All Night
TTITLE1=Instead
TTITLE2=The Miracle In Me
TTITLE3=Letting Go
TTITLE4=That's What Love Can Do
TTITLE5=Beautiful Moments In Time
TTITLE6=Beethoven's 5th
TTITLE7=Another World
TTITLE8=Wanna Be
TTITLE9=When Jesus Came Down
TTITLE10=Like My Mother Does
TTITLE11=I'd Rather Have Jesus
EXTD=
EXTT0=
EXTT1=
EXTT2=
EXTT3=
EXTT4=
EXTT5=
EXTT6=
EXTT7=
EXTT8=
EXTT9=
EXTT10=
EXTT11=
PLAYORDER=
